Coordinates
version=1
nRows=10
nColumns=38
inDegrees=no

Units are S.I. units (second, meters, Newtons, ...)
If the header above contains a line with 'inDegrees', this indicates whether rotational values are in degrees (yes) or radians (no).

endheader
time	pelvis_tilt	pelvis_list	pelvis_rotation	pelvis_tx	pelvis_ty	pelvis_tz	hip_flexion_r	hip_adduction_r	hip_rotation_r	knee_angle_r	ankle_angle_r	subtalar_angle_r	mtp_angle_r	hip_flexion_l	hip_adduction_l	hip_rotation_l	knee_angle_l	ankle_angle_l	subtalar_angle_l	mtp_angle_l	lumbar_extension	lumbar_bending	lumbar_rotation	arm_flex_r	arm_add_r	arm_rot_r	elbow_flex_r	pro_sup_r	wrist_flex_r	wrist_dev_r	arm_flex_l	arm_add_l	arm_rot_l	elbow_flex_l	pro_sup_l	wrist_flex_l	wrist_dev_l
1.65833	-0.0543573	0.124698	-0.0248778	1.10403	1.0013	-0.337054	-0.105001	-0.0726212	0.0296557	-1.35426	-0.181971	0.0450971	0.000122637	0.635791	0.133037	-0.0757257	-0.40822	-0.192565	0.0502807	0.00022959	-0.188021	-0.190227	0.136518	-0.432445	-0.16856	-0.128379	1.74234	1.50195	0.0272516	-0.05636	-0.994899	-0.167087	-0.271352	2.04942	1.665	0.0475329	-0.0238325
1.66667	-0.0445359	0.130384	-0.0196422	1.10409	0.997545	-0.337651	-0.0794236	-0.0911255	-0.00249076	-1.4485	-0.167713	0.0450971	0.000122637	0.610773	0.146408	-0.0666681	-0.412783	-0.189488	0.0502807	0.00022959	-0.202761	-0.198601	0.119888	-0.4464	-0.167766	-0.123513	1.70352	1.46764	0.0272516	-0.05636	-0.97577	-0.175214	-0.265939	2.05495	1.66034	0.0475329	-0.0238325
1.675	-0.0366095	0.13713	-0.0145817	1.10408	0.992936	-0.338366	-0.0496597	-0.110803	-0.0303248	-1.54186	-0.152616	0.0450971	0.000122637	0.590949	0.162007	-0.0547856	-0.432941	-0.175738	0.0502807	0.00022959	-0.21517	-0.207657	0.102787	-0.460466	-0.167093	-0.118263	1.66201	1.4338	0.0272516	-0.05636	-0.954067	-0.184666	-0.259297	2.05874	1.65529	0.0475329	-0.0238325
1.68333	-0.0305243	0.144281	-0.0100856	1.10395	0.987487	-0.339143	-0.0154247	-0.129839	-0.0520695	-1.63377	-0.13668	0.0450971	0.000122637	0.575957	0.179181	-0.0405399	-0.467201	-0.148894	0.0502807	0.00022959	-0.225343	-0.216792	0.0856702	-0.474211	-0.166549	-0.112992	1.61783	1.40281	0.0272516	-0.05636	-0.929495	-0.195133	-0.251336	2.06062	1.65012	0.0475329	-0.0238325
1.69167	-0.026121	0.151266	-0.0064245	1.10366	0.981271	-0.339925	0.023565	-0.146639	-0.0667113	-1.72351	-0.120204	0.0450971	0.000122637	0.565109	0.197246	-0.0250258	-0.513406	-0.10769	0.0502807	0.00022959	-0.233542	-0.225483	0.0688056	-0.487196	-0.166083	-0.108147	1.57108	1.37668	0.0272516	-0.05636	-0.901713	-0.206287	-0.241962	2.06052	1.64515	0.0475329	-0.0238325
1.7	-0.0231992	0.157651	-0.00376901	1.10311	0.974449	-0.340652	0.0675803	-0.159976	-0.0739389	-1.81014	-0.103672	0.0450971	0.000122637	0.557427	0.215511	-0.00969798	-0.56869	-0.0526211	0.0502807	0.00022959	-0.240097	-0.233335	0.0523093	-0.499011	-0.165564	-0.104267	1.52196	1.35701	0.0272516	-0.05636	-0.87038	-0.217826	-0.231088	2.05852	1.64073	0.0475329	-0.0238325
1.70833	-0.0215741	0.163173	-0.00221288	1.10224	0.967257	-0.341268	0.116834	-0.169128	-0.0740759	-1.8925	-0.0875496	0.0450971	0.000122637	0.55168	0.233316	0.00398543	-0.629549	0.0138971	0.0502807	0.00022959	-0.245317	-0.240114	0.0361966	-0.509343	-0.164781	-0.101961	1.47086	1.3449	0.0272516	-0.05636	-0.835235	-0.229493	-0.218659	2.05498	1.63716	0.0475329	-0.0238325
1.71667	-0.0210961	0.167724	-0.00178921	1.10101	0.959971	-0.341733	0.171389	-0.173916	-0.0679637	-1.96919	-0.072131	0.0450971	0.000122637	0.546426	0.250076	0.0149521	-0.692039	0.0879145	0.0502807	0.00022959	-0.249434	-0.245731	0.0204267	-0.518037	-0.163462	-0.101865	1.41839	1.34088	0.0272516	-0.05636	-0.796177	-0.241087	-0.204683	2.05049	1.63456	0.0475329	-0.0238325
1.725	-0.0216373	0.171309	-0.00247144	1.09946	0.952888	-0.342037	0.231046	-0.174618	-0.0568284	-2.03863	-0.0574629	0.0450971	0.000122637	0.540072	0.2653	0.0228012	-0.752114	0.164724	0.0502807	0.00022959	-0.252587	-0.250175	0.00493215	-0.525164	-0.161317	-0.104571	1.3655	1.34479	0.0272516	-0.05636	-0.753366	-0.252431	-0.189266	2.04595	1.6329	0.0475329	-0.0238325
1.73333	-0.0230809	0.173944	-0.00416593	1.09765	0.946306	-0.342204	0.295234	-0.171796	-0.0421568	-2.09914	-0.0433739	0.0450971	0.000122637	0.53097	0.278577	0.0278975	-0.806033	0.239725	0.0502807	0.00022959	-0.254837	-0.253396	-0.0103655	-0.531057	-0.158119	-0.110546	1.3135	1.35561	0.0272516	-0.05636	-0.707295	-0.263324	-0.172646	2.04252	1.63194	0.0475329	-0.0238325
